<svg width="101" height="24" viewBox="0 0 101 24" fill="none" xmlns="http://www.w3.org/2000/svg">
<path d="M99.422 22.7162C100.344 22.815 100.344 23.5065 99.422 23.4407C98.1707 23.3419 96.6889 23.1443 95.3387 23.2102L90.1029 23.4407C88.16 23.4407 86.6782 23.2102 85.361 23.2102C84.0438 23.2102 82.8583 23.4407 81.5082 23.4407C80.5203 23.4407 80.4874 22.815 81.5082 22.7162C83.3852 22.5187 84.0767 21.8271 84.1755 20.0489C84.2084 19.2915 84.2414 18.1061 84.2414 16.7889V14.9777C84.2414 13.1995 84.1426 4.96705 84.0109 3.94623C83.9121 2.99126 83.2535 2.46438 82.1339 2.36559C81.2777 2.29973 81.2777 1.73993 82.1339 1.57528C83.6486 1.31184 84.8341 0.94961 85.4927 0.521522C85.8879 0.258082 86.316 0.422731 86.283 0.850819C86.2172 1.60821 85.9867 10.0382 85.9867 10.5981C85.9867 10.9932 86.5465 11.0261 86.7111 10.5981C88.0612 7.46972 89.8065 5.98787 92.1445 5.98787C94.8119 5.98787 96.2608 7.76609 96.2608 11.1249V16.9864L96.3266 20.0818C96.3596 21.6625 97.3804 22.5187 99.422 22.7162ZM90.037 22.8809C92.3751 22.8809 94.0545 21.7613 94.1533 20.0489C94.1862 19.2915 94.2191 18.0731 94.2191 16.7889V15.0436C94.2191 14.0228 94.1862 12.1787 94.1533 11.3225C94.0545 9.01742 93.1324 7.89781 91.3542 7.96367C88.4564 8.02953 86.283 11.0261 86.283 14.8789V16.9864L86.3489 20.0818C86.3818 22.1894 87.3368 22.8809 90.037 22.8809Z" fill="#1C1F2A"/>
<path d="M74.2816 23.9347C70.5276 23.9347 67.3993 21.432 67.3993 15.7351C67.3993 9.64313 70.9557 5.98792 74.7097 5.98792C76.0928 5.98792 78.0027 6.51479 79.2211 7.37097C80.2419 8.09543 79.0235 9.37969 78.0027 9.37969C76.5867 9.37969 76.3891 7.04167 74.3146 7.04167C71.3179 7.04167 69.5727 9.84071 69.5727 14.4838C69.5727 19.5221 72.1083 22.0247 74.9402 21.9589C76.7514 21.926 78.2991 21.1027 79.748 19.1928C80.3407 18.4025 80.7688 18.633 80.2419 19.7526C79.0565 22.3211 76.9489 23.9347 74.2816 23.9347Z" fill="#1C1F2A"/>
<path d="M66.3674 22.7163C67.2894 22.8151 67.2894 23.5066 66.3674 23.4407C65.1161 23.3419 63.6672 23.1444 62.2841 23.2102L57.0483 23.4407C55.1054 23.4407 53.6236 23.2102 52.3064 23.2102C50.9892 23.2102 49.8037 23.4407 48.4536 23.4407C47.4657 23.4407 47.4328 22.8151 48.4536 22.7163C50.3306 22.5187 51.0221 21.8272 51.1209 20.049C51.2526 17.7768 51.2197 11.4543 50.9892 9.54434C50.8904 8.6223 50.1989 8.02957 49.1122 7.96371C48.256 7.89785 48.2231 7.33804 49.1122 7.17339C50.6269 6.90995 51.8124 6.54772 52.471 6.11964C52.8662 5.8562 53.2943 6.02084 53.2613 6.44893C53.1955 7.17339 52.965 10.0383 52.965 10.5981C52.965 10.9933 53.5248 11.0262 53.6894 10.5981C55.0395 7.46976 56.7848 5.98792 59.1228 5.98792C61.7902 5.98792 63.2391 7.76613 63.2391 11.125L63.272 20.0819C63.272 21.6296 64.3258 22.5187 66.3674 22.7163ZM61.0986 20.049C61.1974 18.1061 61.1974 13.3642 61.1316 11.3226C61.0328 9.01746 60.1107 7.89785 58.3325 7.96371C55.4018 8.02957 53.2284 11.0591 53.2613 14.879L53.2943 20.0819C53.2943 22.1894 54.2492 22.8151 56.9824 22.8151C59.3204 22.8151 60.9998 21.7613 61.0986 20.049Z" fill="#1C1F2A"/>
<path d="M37.1942 23.4407C35.0208 23.4407 32.4523 22.5516 32.4523 18.3037L32.4193 10.1371C32.4193 8.52353 31.6949 8.09544 30.7399 7.99665C29.785 7.89786 29.5874 7.30512 30.7399 7.14047C32.123 6.94289 32.9792 6.71238 33.8353 6.18551C34.3951 5.82328 34.8562 5.92207 34.7574 6.81117C34.2963 11.0591 34.4939 12.6068 34.4939 14.385C34.4939 15.4059 34.5269 17.2499 34.5598 18.1061C34.6586 20.3124 35.7453 21.6625 37.9516 21.6625C40.9811 21.6625 42.43 17.8427 42.3971 9.54435C42.3971 8.52352 41.5409 8.06251 40.5201 7.96372C39.7298 7.89786 39.5651 7.33805 40.5201 7.1734C41.8702 6.94289 43.1874 6.58066 43.8789 6.11965C44.2741 5.85621 44.7022 6.02086 44.6692 6.44894C44.4717 8.91868 44.4717 12.6068 44.4717 14.385V14.4509C44.4717 16.2291 44.5705 18.8635 44.7022 19.8843C44.8339 20.9051 45.5583 21.3991 46.5792 21.465C47.3695 21.5308 47.5341 22.0906 46.5792 22.2553C45.2291 22.4858 43.9119 22.848 43.2203 23.309C42.8252 23.5725 42.3971 23.4078 42.43 22.9797C42.4959 22.2223 42.5947 19.3904 42.5947 18.8306C42.5947 18.6001 42.5288 18.4025 42.3642 18.4025C42.1995 18.4025 42.0678 18.6001 42.0019 18.8306C41.0799 22.2223 39.0712 23.4407 37.1942 23.4407Z" fill="#1C1F2A"/>
<path d="M19.0122 7.17339C20.3623 6.94288 21.6795 6.58065 22.3711 6.11964C22.7662 5.8562 23.1943 6.02084 23.1614 6.44893C23.0955 7.20632 22.9967 10.0383 22.9967 10.5981C22.9967 10.8286 23.1284 10.8945 23.2931 10.8945C23.4577 10.8945 23.4907 10.8286 23.5895 10.5981C25.1701 6.87702 27.1459 5.98792 28.3643 5.98792C29.1217 5.98792 29.6156 6.54772 29.4839 7.4039C29.3522 8.26007 28.8253 8.72109 27.574 8.75402C24.9067 8.81988 23.1614 10.7298 23.1614 14.879L23.1943 20.0819C23.1943 21.4649 24.0175 22.4858 26.2897 22.7163C27.2447 22.8151 27.1788 23.5066 26.2897 23.4407C25.0384 23.3419 23.5236 23.2102 22.2064 23.2102C20.8892 23.2102 19.7037 23.4407 18.3536 23.4407C17.3986 23.4407 17.3328 22.8151 18.3536 22.7163C20.2306 22.5187 20.9221 21.7942 21.0209 20.049C21.1197 18.3366 21.1197 16.8218 21.1197 15.0436C21.1197 13.2654 21.0209 10.5652 20.8892 9.54434C20.7575 8.52351 20.033 8.02957 19.0122 7.96371C18.2219 7.89785 18.0572 7.33804 19.0122 7.17339Z" fill="#1C1F2A"/>
<path d="M0.65593 2.03631C-0.134386 1.97045 -0.299035 1.41064 0.65593 1.24599C2.00605 1.01548 3.32325 0.653255 4.01477 0.192237C4.40993 -0.0712024 4.83802 0.0934464 4.80509 0.521535C4.73923 1.27892 4.57458 9.67603 4.57458 10.5651C4.57458 10.9274 5.00267 11.0262 5.13439 10.5651C5.95763 7.63438 7.73585 5.98789 10.502 5.98789C13.4656 5.98789 16.594 8.72106 16.594 14.1874C16.594 20.2794 13.0376 23.9347 9.51406 23.9347C6.05642 23.9347 5.66127 21.6296 4.67337 21.6296C4.27821 21.6296 3.85013 22.1564 3.29032 23.1443C2.79637 24.0005 2.13777 23.9676 2.23656 23.0126C2.99395 15.8339 2.53293 10.3017 2.53293 3.61694C2.53293 2.59611 1.67676 2.1351 0.65593 2.03631ZM9.18476 7.96368C6.71502 8.02954 4.93681 10.7298 4.96974 14.8789L5.00267 17.9085C5.0356 20.971 7.01139 22.8809 9.34941 22.8809C11.885 22.8809 14.1901 20.0819 14.1901 15.4388C14.1901 10.7298 11.885 7.89782 9.18476 7.96368Z" fill="#1C1F2A"/>
</svg>
