<svg width="122" height="29" viewBox="0 0 122 29" fill="none" xmlns="http://www.w3.org/2000/svg">
<path d="M120.765 27.12C121.885 27.24 121.885 28.08 120.765 28C119.245 27.88 117.445 27.64 115.805 27.72L109.445 28C107.085 28 105.285 27.72 103.685 27.72C102.085 27.72 100.645 28 99.0046 28C97.8046 28 97.7646 27.24 99.0046 27.12C101.285 26.88 102.125 26.04 102.245 23.88C102.285 22.96 102.325 21.52 102.325 19.92V17.72C102.325 15.56 102.205 5.56003 102.045 4.32003C101.925 3.16003 101.125 2.52003 99.7646 2.40003C98.7246 2.32003 98.7246 1.64003 99.7646 1.44003C101.605 1.12003 103.045 0.680028 103.845 0.160028C104.325 -0.159973 104.845 0.0400268 104.805 0.560027C104.725 1.48003 104.445 11.72 104.445 12.4C104.445 12.88 105.125 12.92 105.325 12.4C106.965 8.60003 109.085 6.80003 111.925 6.80003C115.165 6.80003 116.925 8.96003 116.925 13.04V20.16L117.005 23.92C117.045 25.84 118.285 26.88 120.765 27.12ZM109.365 27.32C112.205 27.32 114.245 25.96 114.365 23.88C114.405 22.96 114.445 21.48 114.445 19.92V17.8C114.445 16.56 114.405 14.32 114.365 13.28C114.245 10.48 113.125 9.12003 110.965 9.20003C107.445 9.28003 104.805 12.92 104.805 17.6V20.16L104.885 23.92C104.925 26.48 106.085 27.32 109.365 27.32Z" fill="#1C1F2A"/>
<path d="M90.2265 28.6C85.6665 28.6 81.8665 25.56 81.8665 18.64C81.8665 11.24 86.1865 6.79999 90.7465 6.79999C92.4265 6.79999 94.7465 7.43999 96.2265 8.47999C97.4665 9.35999 95.9865 10.92 94.7465 10.92C93.0265 10.92 92.7865 8.07999 90.2665 8.07999C86.6265 8.07999 84.5065 11.48 84.5065 17.12C84.5065 23.24 87.5865 26.28 91.0265 26.2C93.2265 26.16 95.1065 25.16 96.8665 22.84C97.5865 21.88 98.1065 22.16 97.4665 23.52C96.0265 26.64 93.4665 28.6 90.2265 28.6Z" fill="#1C1F2A"/>
<path d="M80.6131 27.12C81.7331 27.24 81.7331 28.08 80.6131 28C79.0931 27.88 77.3331 27.64 75.6531 27.72L69.2931 28C66.9331 28 65.1331 27.72 63.5331 27.72C61.933 27.72 60.493 28 58.853 28C57.653 28 57.613 27.24 58.853 27.12C61.133 26.88 61.973 26.04 62.093 23.88C62.253 21.12 62.213 13.44 61.933 11.12C61.813 9.99999 60.973 9.27999 59.653 9.19999C58.613 9.11999 58.573 8.43999 59.653 8.23999C61.493 7.91999 62.933 7.47999 63.733 6.95999C64.213 6.63999 64.733 6.83999 64.693 7.35999C64.613 8.23999 64.333 11.72 64.333 12.4C64.333 12.88 65.0131 12.92 65.2131 12.4C66.8531 8.59999 68.973 6.79999 71.813 6.79999C75.053 6.79999 76.813 8.95999 76.813 13.04L76.8531 23.92C76.8531 25.8 78.1331 26.88 80.6131 27.12ZM74.2131 23.88C74.3331 21.52 74.3331 15.76 74.2531 13.28C74.1331 10.48 73.013 9.11999 70.8531 9.19999C67.293 9.27999 64.653 12.96 64.693 17.6L64.733 23.92C64.733 26.48 65.8931 27.24 69.2131 27.24C72.0531 27.24 74.0931 25.96 74.2131 23.88Z" fill="#1C1F2A"/>
<path d="M45.1762 28C42.5362 28 39.4162 26.92 39.4162 21.76L39.3762 11.84C39.3762 9.88002 38.4962 9.36002 37.3362 9.24002C36.1762 9.12002 35.9362 8.40002 37.3362 8.20002C39.0162 7.96002 40.0562 7.68002 41.0962 7.04001C41.7762 6.60002 42.3362 6.72002 42.2162 7.80002C41.6562 12.96 41.8962 14.84 41.8962 17C41.8962 18.24 41.9362 20.48 41.9762 21.52C42.0962 24.2 43.4162 25.84 46.0962 25.84C49.7762 25.84 51.5362 21.2 51.4962 11.12C51.4962 9.88002 50.4562 9.32002 49.2162 9.20002C48.2562 9.12002 48.0562 8.44002 49.2162 8.24002C50.8562 7.96002 52.4562 7.52002 53.2962 6.96002C53.7762 6.64002 54.2962 6.84002 54.2562 7.36002C54.0162 10.36 54.0162 14.84 54.0162 17V17.08C54.0162 19.24 54.1362 22.44 54.2962 23.68C54.4562 24.92 55.3362 25.52 56.5762 25.6C57.5362 25.68 57.7362 26.36 56.5762 26.56C54.9362 26.84 53.3362 27.28 52.4962 27.84C52.0162 28.16 51.4962 27.96 51.5362 27.44C51.6162 26.52 51.7362 23.08 51.7362 22.4C51.7362 22.12 51.6562 21.88 51.4562 21.88C51.2562 21.88 51.0962 22.12 51.0162 22.4C49.8962 26.52 47.4562 28 45.1762 28Z" fill="#1C1F2A"/>
<path d="M23.0906 8.23999C24.7306 7.95999 26.3306 7.51999 27.1706 6.95999C27.6506 6.63999 28.1706 6.83999 28.1306 7.35999C28.0506 8.27999 27.9306 11.72 27.9306 12.4C27.9306 12.68 28.0906 12.76 28.2906 12.76C28.4906 12.76 28.5306 12.68 28.6506 12.4C30.5706 7.87999 32.9706 6.79999 34.4506 6.79999C35.3706 6.79999 35.9706 7.47999 35.8106 8.51999C35.6506 9.55999 35.0106 10.12 33.4906 10.16C30.2506 10.24 28.1306 12.56 28.1306 17.6L28.1706 23.92C28.1706 25.6 29.1706 26.84 31.9306 27.12C33.0906 27.24 33.0106 28.08 31.9306 28C30.4106 27.88 28.5706 27.72 26.9706 27.72C25.3706 27.72 23.9306 28 22.2906 28C21.1306 28 21.0506 27.24 22.2906 27.12C24.5706 26.88 25.4106 26 25.5306 23.88C25.6506 21.8 25.6506 19.96 25.6506 17.8C25.6506 15.64 25.5306 12.36 25.3706 11.12C25.2106 9.87999 24.3306 9.27999 23.0906 9.19999C22.1306 9.11999 21.9306 8.43999 23.0906 8.23999Z" fill="#1C1F2A"/>
<path d="M0.90025 28C-0.25975 28 -0.33975 27.24 0.90025 27.12C3.18025 26.88 4.02025 26 4.14025 23.88C4.22025 22.36 4.26025 19.16 4.26025 14.32C4.26025 10.2 4.22025 5.16 4.14025 4.12C4.02025 2 3.18025 1.12 0.90025 0.880001C-0.33975 0.76 -0.25975 0 0.90025 0C2.54025 0 3.98025 0.280001 5.58025 0.280001C7.22025 0.280001 8.66025 0 10.4203 0C14.5003 0.0399995 18.7003 2.16 18.7003 6.8C18.7003 10.24 15.3003 12.12 13.0203 12.8C12.4203 12.96 12.4203 13.2 12.9403 13.32C16.4203 14.12 20.2602 16.76 20.2602 21C20.2602 25.64 16.4603 28 11.7403 28C9.42025 28 7.58025 27.72 5.58025 27.72C3.98025 27.72 2.54025 28 0.90025 28ZM8.42025 12.6C12.9003 12.56 15.6603 11.76 15.6603 6.8C15.6603 3.16 13.5403 1.04 10.0603 1C8.18025 1 7.22025 2.16 7.18025 4.08C7.14025 5.56 7.10025 8.48 7.06025 11.16C7.02025 12.12 7.50025 12.6 8.42025 12.6ZM11.8603 27.28C15.7003 27.28 17.1402 23.56 17.1402 21C17.1402 16.48 14.7803 13.76 8.46025 13.6C7.54025 13.6 7.02025 14.08 7.02025 15C7.06025 17.84 7.10025 22.56 7.18025 23.92C7.30025 26.76 9.10025 27.28 11.8603 27.28Z" fill="#1C1F2A"/>
</svg>
