<svg width="1315" height="468" viewBox="0 0 1315 468" fill="none" xmlns="http://www.w3.org/2000/svg">
<path d="M121.704 33.132C129.288 35.916 132.744 40.62 132.744 48.972C132.744 66.444 118.344 67.5 105.672 67.5H81.5762V0.299995H105C116.616 0.299995 130.152 1.644 130.152 18.732C130.152 25.26 126.792 30.348 121.704 33.132ZM104.328 7.788H90.2162V29.484H104.232C112.488 29.484 121.704 29.388 121.704 18.732C121.704 7.884 112.488 7.788 104.328 7.788ZM90.2162 60.108H105.672C115.176 60.108 124.296 60.108 124.296 48.972C124.296 36.972 113.448 36.972 106.152 36.972H90.2162V60.108ZM169.817 18.348C171.833 18.348 173.849 18.732 175.769 19.404L173.849 27.852C172.313 27.372 170.873 27.18 169.529 27.18C158.489 27.18 151.865 39.18 151.865 55.788V67.5H143.225V19.5H151.865V35.148C154.265 25.452 161.753 18.348 169.817 18.348ZM214.765 46.476V19.5H223.405V67.5H214.765V60.3C212.173 65.772 206.797 68.652 199.981 68.652C193.741 68.652 189.229 66.924 185.773 63.276C182.029 59.34 181.933 53.292 181.933 48.204V19.5H190.861V47.724C190.861 52.14 190.765 55.884 193.645 58.668C196.429 61.356 199.597 61.452 202.381 61.452C206.701 61.452 214.765 60.396 214.765 46.476ZM273.766 23.724C277.414 27.66 277.51 33.9 277.51 38.988V67.5H268.582V39.468C268.582 35.052 268.678 31.116 265.702 28.332C263.014 25.644 259.846 25.548 257.158 25.548C252.934 25.548 244.678 27.276 244.678 41.004V67.5H236.038V19.5H244.678V26.796C247.078 21.42 251.782 18.348 259.462 18.348C265.798 18.348 270.31 20.076 273.766 23.724ZM310.591 68.652C295.903 68.652 286.783 59.244 286.783 43.5C286.783 28.716 295.903 18.348 310.591 18.348C322.783 18.348 329.695 25.644 331.615 34.764L323.551 36.3C322.111 30.732 319.231 25.26 310.591 25.26C305.119 25.26 301.663 26.892 299.455 29.772C297.055 33.036 296.287 37.836 296.287 43.5C296.287 54.348 298.975 61.74 310.591 61.74C317.983 61.74 321.823 58.86 323.647 51.948L331.807 52.812C330.079 62.508 321.727 68.652 310.591 68.652ZM378.391 23.724C382.039 27.66 382.135 33.708 382.135 38.796V67.5H373.207V39.276C373.207 34.86 373.303 31.116 370.327 28.332C367.639 25.644 364.471 25.548 361.783 25.548C357.463 25.548 349.303 26.604 349.303 40.524V67.5H340.663V0.299995H349.303V26.7C351.991 20.94 357.367 18.348 364.087 18.348C370.423 18.348 374.935 20.076 378.391 23.724ZM424.397 10.476H415.757V0.299995H424.397V10.476ZM424.397 67.5H415.757V19.5H424.397V67.5ZM454.318 68.652C443.566 68.652 433.87 63.66 433.966 51.756L441.838 50.988C441.742 57.708 446.638 61.836 454.126 61.836C461.998 61.836 465.934 59.148 465.934 54.06C465.934 48.588 457.102 47.916 450.478 46.188C442.702 44.172 435.022 41.868 435.022 32.364C435.022 22.38 444.238 18.348 452.782 18.348C462.958 18.348 471.79 22.38 472.846 34.092L464.782 35.34C464.59 28.716 460.27 25.164 452.686 25.164C447.982 25.164 443.086 27.372 443.086 31.788C443.086 36.204 448.846 37.452 454.606 38.7C464.206 40.716 474.094 42.348 474.094 53.58C474.094 65.292 464.014 68.652 454.318 68.652ZM548.872 60.396L549.064 67.5C547.24 67.788 545.608 67.884 543.688 67.884C538.408 67.884 535.528 65.388 535.048 60.396C532.36 65.868 527.08 68.652 518.92 68.652C510.856 68.652 502.792 64.236 502.792 54.828C502.792 44.46 511.528 41.58 519.112 40.14L534.952 37.068C534.952 32.748 534.76 30.348 533.32 28.332C531.976 26.412 528.808 25.164 524.584 25.164C516.232 25.164 512.872 28.236 512.872 35.532L504.424 34.38C504.616 28.62 506.632 24.396 510.376 21.9C513.832 19.596 518.92 18.348 525.064 18.348C537.16 18.348 543.304 23.724 543.304 34.188V57.132C543.304 59.628 543.304 60.78 546.088 60.78C546.856 60.78 547.624 60.684 548.872 60.396ZM534.952 49.356V43.5L520.456 46.668C515.368 47.82 511.624 49.26 511.624 54.732C511.624 59.244 515.56 61.74 520.264 61.74C530.728 61.74 534.952 56.268 534.952 49.356ZM582.632 68.94C576.2 68.94 572.84 64.908 572.84 57.132C572.84 41.388 586.76 16.62 605.384 16.62C607.88 16.62 611.72 17.58 613.64 19.404C616.232 21.708 612.008 25.164 608.648 25.164C604.52 25.164 605.096 21.036 598.856 21.036C589.832 21.036 580.904 42.06 580.904 53.868C580.904 59.628 582.824 62.412 586.952 62.412C594.44 62.412 599.336 54.444 601.064 52.332C601.928 51.18 603.464 51.948 602.792 53.292C601.64 55.596 594.44 68.94 582.632 68.94ZM617.371 68.364C614.395 69.804 611.899 68.556 614.971 60.972C626.299 32.844 627.547 28.716 627.355 26.796C627.163 25.26 625.819 24.684 624.955 24.684C621.787 24.684 615.547 31.692 613.147 34.38C612.379 35.34 611.323 34.86 611.899 33.612C613.723 29.676 623.707 17.1 630.715 17.1C634.267 17.1 636.379 20.556 633.691 28.908C632.155 33.324 630.523 38.316 628.795 43.692C628.411 44.844 629.563 45.9 630.043 44.844C636.667 32.076 664.027 5.1 679.291 2.988C688.219 1.73999 684.763 13.644 677.275 13.068C660.475 11.916 633.787 36.108 620.923 64.332C620.155 66.06 619.195 67.5 617.371 68.364ZM666.811 68.94C655.099 68.94 649.435 60.396 654.331 45.036C659.995 27.276 673.339 16.62 683.899 16.62C696.955 16.62 698.875 32.556 684.667 36.108L664.891 41.004C662.971 41.484 661.627 42.732 661.243 44.748C658.459 56.46 662.491 63.276 670.075 63.18C676.315 63.084 680.443 58.764 683.323 54.348C685.243 51.276 686.683 52.62 684.763 55.596C679.291 64.332 672.187 68.94 666.811 68.94ZM677.179 34.86C682.555 32.844 685.531 28.524 685.723 24.684C686.011 20.94 683.611 19.692 681.211 19.692C675.643 19.692 669.883 24.396 666.139 31.596C662.875 38.604 669.499 37.644 677.179 34.86ZM698.753 68.844C694.913 68.844 691.649 66.252 691.649 61.644C691.649 47.532 716.225 23.436 731.105 20.844C734.753 20.172 735.905 19.116 738.689 17.196C742.145 14.796 744.641 16.332 744.641 18.444C744.641 19.884 743.009 23.724 730.337 57.132C729.377 59.724 729.857 62.22 731.969 62.22C734.753 62.22 738.785 57.708 741.857 53.772C742.529 52.908 743.969 53.388 743.201 54.732C740.417 59.532 731.969 68.844 726.209 68.844C722.561 68.844 720.065 65.1 724.097 56.46C724.673 55.308 725.921 52.62 726.497 51.372C727.457 49.26 726.113 48.108 724.385 50.124C722.273 52.428 718.049 56.748 714.593 59.916C707.585 66.348 702.497 68.844 698.753 68.844ZM703.265 62.22C715.265 62.22 735.041 34.284 735.041 27.372C735.041 25.548 733.217 23.724 730.529 23.724C715.169 23.724 699.809 48.972 699.809 58.092C699.809 60.492 701.249 62.22 703.265 62.22ZM756.633 68.94C753.081 68.94 749.721 65.292 752.313 57.708C754.713 50.892 763.353 26.988 763.929 24.972C764.601 22.572 763.065 21.708 757.497 22.092C755.001 22.284 754.905 19.884 757.401 19.404C766.329 17.58 768.633 15.468 772.761 5.484C773.913 2.796 775.737 2.796 775.065 5.196L772.569 14.124C771.897 16.428 773.337 18.06 775.065 18.06H786.105C788.409 18.06 784.377 22.188 781.977 22.188H774.297C772.377 22.188 771.609 23.34 770.937 25.068C770.265 26.796 762.585 48.492 759.993 56.172C759.609 57.228 757.785 61.26 762.009 61.26C765.081 61.26 771.225 54.252 772.953 51.564C773.721 50.508 775.737 50.316 774.873 52.332C773.241 56.076 763.545 68.94 756.633 68.94ZM785.543 68.844C781.991 68.844 780.359 65.388 784.199 57.036C788.039 48.972 792.647 39.372 797.255 28.332C799.559 22.764 793.415 25.26 788.903 28.908C785.447 31.596 784.775 29.388 787.463 26.892C793.031 21.708 798.887 19.116 802.439 17.58C805.703 16.14 808.583 17.388 804.935 25.164C792.071 53.1 791.207 57.228 791.111 59.148C791.111 60.684 792.263 61.26 793.127 61.26C796.295 61.26 802.727 54.252 805.511 51.564C806.375 50.604 807.431 51.084 806.663 52.332C804.263 56.268 792.551 68.844 785.543 68.844ZM808.487 10.764C805.511 10.764 803.207 8.46 803.207 5.484C803.207 2.60399 805.511 0.299995 808.487 0.299995C811.367 0.299995 813.671 2.60399 813.671 5.484C813.671 8.46 811.367 10.764 808.487 10.764ZM823.391 68.94C817.247 68.94 813.887 65.964 813.887 60.588C813.887 52.428 825.887 33.516 825.887 26.796C825.887 22.668 822.335 25.356 817.919 28.908C814.559 31.596 813.791 29.388 816.383 26.892C821.759 21.708 827.519 19.116 831.071 17.58C833.951 16.332 835.391 17.388 835.391 19.692C835.391 25.26 821.183 52.524 821.183 58.668C821.183 60.972 822.911 62.7 826.367 62.7C837.791 62.7 852.575 44.076 852.575 36.492C852.575 27.372 847.391 26.892 847.391 21.516C847.391 18.732 848.735 16.716 850.655 16.716C853.727 16.716 855.743 21.516 855.743 30.54C855.743 49.644 835.487 68.94 823.391 68.94ZM874.109 68.94C862.397 68.94 856.733 60.396 861.629 45.036C867.293 27.276 880.637 16.62 891.197 16.62C904.253 16.62 906.173 32.556 891.965 36.108L872.189 41.004C870.269 41.484 868.925 42.732 868.541 44.748C865.757 56.46 869.789 63.276 877.373 63.18C883.613 63.084 887.741 58.764 890.621 54.348C892.541 51.276 893.981 52.62 892.061 55.596C886.589 64.332 879.485 68.94 874.109 68.94ZM884.477 34.86C889.853 32.844 892.829 28.524 893.021 24.684C893.309 20.94 890.909 19.692 888.509 19.692C882.941 19.692 877.181 24.396 873.437 31.596C870.173 38.604 876.797 37.644 884.477 34.86ZM972.468 60.396L972.66 67.5C970.836 67.788 969.204 67.884 967.284 67.884C962.004 67.884 959.124 65.388 958.644 60.396C955.956 65.868 950.676 68.652 942.516 68.652C934.452 68.652 926.388 64.236 926.388 54.828C926.388 44.46 935.124 41.58 942.708 40.14L958.548 37.068C958.548 32.748 958.356 30.348 956.916 28.332C955.572 26.412 952.404 25.164 948.18 25.164C939.828 25.164 936.468 28.236 936.468 35.532L928.02 34.38C928.212 28.62 930.228 24.396 933.972 21.9C937.428 19.596 942.516 18.348 948.66 18.348C960.756 18.348 966.9 23.724 966.9 34.188V57.132C966.9 59.628 966.9 60.78 969.684 60.78C970.452 60.78 971.22 60.684 972.468 60.396ZM958.548 49.356V43.5L944.052 46.668C938.964 47.82 935.22 49.26 935.22 54.732C935.22 59.244 939.156 61.74 943.86 61.74C954.324 61.74 958.548 56.268 958.548 49.356ZM1015.1 26.22V19.5H1023.74V66.444C1023.74 79.308 1014.81 87.18 1000.7 87.18C991.192 87.18 980.728 83.052 980.248 70.956L988.504 70.38C988.888 78.348 993.976 80.46 1001.66 80.46C1009.43 80.46 1015.1 75.756 1015.1 67.02V58.86C1011.54 64.428 1006.55 67.116 999.928 67.116C986.68 67.116 977.944 57.228 977.944 42.252C977.944 28.044 986.776 18.348 999.64 18.348C1006.84 18.348 1011.74 21.132 1015.1 26.22ZM1011.16 56.268C1014.33 52.812 1015.48 47.436 1015.48 42.252C1015.48 30.924 1010.49 25.26 1001.46 25.26C996.568 25.26 993.208 26.604 991 29.196C988.312 32.076 987.352 36.588 987.352 42.252C987.352 53.484 990.232 60.204 1001.27 60.204C1005.78 60.204 1008.95 58.668 1011.16 56.268ZM1075.39 27.852C1078.27 32.46 1079.81 39.276 1079.42 46.092H1043.04C1043.23 56.652 1047.65 61.74 1056.67 61.74C1064.83 61.74 1069.25 58.284 1070.4 50.988L1078.75 51.66C1076.64 62.892 1068.96 68.652 1056.77 68.652C1049.38 68.652 1043.62 66.444 1039.49 61.644C1035.46 57.132 1033.63 50.892 1033.63 43.404C1033.63 36.3 1035.65 30.06 1039.68 25.548C1043.9 20.748 1049.76 18.348 1056.67 18.348C1064.26 18.348 1071.46 21.612 1075.39 27.852ZM1056.77 25.356C1051.39 25.356 1047.36 27.372 1045.44 30.54C1043.71 33.42 1043.14 36.684 1043.14 39.084H1070.59C1070.5 36.492 1069.54 32.844 1068 30.54C1065.5 26.892 1061.95 25.356 1056.77 25.356ZM1126.92 23.724C1130.57 27.66 1130.67 33.9 1130.67 38.988V67.5H1121.74V39.468C1121.74 35.052 1121.84 31.116 1118.86 28.332C1116.17 25.644 1113 25.548 1110.32 25.548C1106.09 25.548 1097.84 27.276 1097.84 41.004V67.5H1089.2V19.5H1097.84V26.796C1100.24 21.42 1104.94 18.348 1112.62 18.348C1118.96 18.348 1123.47 20.076 1126.92 23.724ZM1163.75 68.652C1149.06 68.652 1139.94 59.244 1139.94 43.5C1139.94 28.716 1149.06 18.348 1163.75 18.348C1175.94 18.348 1182.85 25.644 1184.77 34.764L1176.71 36.3C1175.27 30.732 1172.39 25.26 1163.75 25.26C1158.28 25.26 1154.82 26.892 1152.61 29.772C1150.21 33.036 1149.45 37.836 1149.45 43.5C1149.45 54.348 1152.13 61.74 1163.75 61.74C1171.14 61.74 1174.98 58.86 1176.81 51.948L1184.97 52.812C1183.24 62.508 1174.89 68.652 1163.75 68.652ZM1215.04 45.42L1224.25 19.5H1233.28L1213.69 71.916C1209.76 82.476 1206.3 87.18 1199.68 87.18C1197.37 87.18 1194.78 86.892 1192.38 86.22L1192.57 78.156C1194.3 78.732 1196.32 79.212 1198.53 79.212C1202.08 79.212 1203.71 75.276 1206.88 67.116L1188.16 19.5H1197.37L1206.49 45.42C1207.65 48.684 1209.18 53.388 1210.72 58.188C1212.64 52.332 1213.69 49.26 1215.04 45.42ZM21.401 201.652C10.649 201.652 0.952973 196.66 1.04897 184.756L8.92097 183.988C8.82497 190.708 13.721 194.836 21.209 194.836C29.081 194.836 33.017 192.148 33.017 187.06C33.017 181.588 24.185 180.916 17.561 179.188C9.78497 177.172 2.10497 174.868 2.10497 165.364C2.10497 155.38 11.321 151.348 19.865 151.348C30.041 151.348 38.873 155.38 39.929 167.092L31.865 168.34C31.673 161.716 27.353 158.164 19.769 158.164C15.065 158.164 10.169 160.372 10.169 164.788C10.169 169.204 15.929 170.452 21.689 171.7C31.289 173.716 41.177 175.348 41.177 186.58C41.177 198.292 31.097 201.652 21.401 201.652ZM72.0222 201.652C57.0462 201.652 48.0222 192.148 48.0222 176.5C48.0222 161.908 57.1422 151.348 72.0222 151.348C86.7102 151.348 95.9262 162.004 95.9262 176.5C95.9262 191.572 86.4222 201.652 72.0222 201.652ZM72.0222 194.836C76.9182 194.836 80.3742 193.396 82.6782 190.804C85.4622 187.636 86.6142 182.74 86.6142 176.5C86.6142 170.26 85.4622 165.268 82.5822 162.1C80.2782 159.604 76.9182 158.164 72.0222 158.164C67.3182 158.164 63.8622 159.412 61.5582 161.812C58.4862 164.98 57.3342 170.068 57.3342 176.5C57.3342 182.932 58.4862 188.02 61.5582 191.188C63.8622 193.588 67.2222 194.836 72.0222 194.836ZM114.386 200.5H105.746V133.3H114.386V200.5ZM135.667 143.476H127.027V133.3H135.667V143.476ZM135.667 200.5H127.027V152.5H135.667V200.5ZM182.772 158.74V133.3H191.412V200.5H182.772V193.492C179.22 198.964 174.036 201.652 167.604 201.652C154.836 201.652 145.524 192.148 145.524 176.5C145.524 161.332 154.356 151.348 167.316 151.348C174.036 151.348 179.124 153.652 182.772 158.74ZM178.548 191.38C181.524 188.404 183.06 183.412 183.06 176.596C183.06 167.668 181.044 158.26 169.332 158.26C164.436 158.26 160.98 159.7 158.772 162.292C156.084 165.46 155.028 170.26 155.028 176.5C155.028 187.732 157.908 194.836 169.14 194.836C173.172 194.836 176.244 193.684 178.548 191.38ZM212.73 143.476H204.09V133.3H212.73V143.476ZM212.73 200.5H204.09V152.5H212.73V200.5ZM236.987 200.5H228.443V159.7H221.531V152.5H228.443V144.052C228.443 136.276 232.379 132.82 241.307 132.82C243.323 132.82 245.531 133.108 246.587 133.3L246.395 140.98C244.859 140.692 242.843 140.5 241.787 140.5C238.523 140.5 236.987 141.076 236.987 144.244V152.5H246.779V159.7H236.987V200.5ZM275.368 178.42L284.584 152.5H293.608L274.024 204.916C270.088 215.476 266.632 220.18 260.008 220.18C257.704 220.18 255.112 219.892 252.712 219.22L252.904 211.156C254.632 211.732 256.648 212.212 258.856 212.212C262.408 212.212 264.04 208.276 267.208 200.116L248.488 152.5H257.704L266.824 178.42C267.976 181.684 269.512 186.388 271.048 191.188C272.968 185.332 274.024 182.26 275.368 178.42ZM309.198 143.476H300.558V133.3H309.198V143.476ZM309.198 200.5H300.558V152.5H309.198V200.5ZM359.568 156.724C363.216 160.66 363.312 166.9 363.312 171.988V200.5H354.384V172.468C354.384 168.052 354.48 164.116 351.504 161.332C348.816 158.644 345.648 158.548 342.96 158.548C338.736 158.548 330.48 160.276 330.48 174.004V200.5H321.84V152.5H330.48V159.796C332.88 154.42 337.584 151.348 345.264 151.348C351.6 151.348 356.112 153.076 359.568 156.724ZM409.833 159.22V152.5H418.473V199.444C418.473 212.308 409.545 220.18 395.433 220.18C385.929 220.18 375.465 216.052 374.985 203.956L383.241 203.38C383.625 211.348 388.713 213.46 396.393 213.46C404.169 213.46 409.833 208.756 409.833 200.02V191.86C406.281 197.428 401.289 200.116 394.665 200.116C381.417 200.116 372.681 190.228 372.681 175.252C372.681 161.044 381.513 151.348 394.377 151.348C401.577 151.348 406.473 154.132 409.833 159.22ZM405.897 189.268C409.065 185.812 410.217 180.436 410.217 175.252C410.217 163.924 405.225 158.26 396.201 158.26C391.305 158.26 387.945 159.604 385.737 162.196C383.049 165.076 382.089 169.588 382.089 175.252C382.089 186.484 384.969 193.204 396.009 193.204C400.521 193.204 403.689 191.668 405.897 189.268ZM476.717 151.252C489.677 151.252 498.509 161.332 498.509 176.5C498.509 192.148 489.197 201.652 476.429 201.652C469.997 201.652 464.813 198.964 461.261 193.492V200.5H452.621V133.3H461.261V158.74C464.909 153.652 469.997 151.252 476.717 151.252ZM485.357 191.092C488.141 187.828 489.005 182.836 489.005 176.5C489.005 164.98 485.453 158.068 474.701 158.068C469.613 158.068 466.349 159.892 464.333 162.676C461.645 166.228 460.973 171.508 460.973 176.596C460.973 188.692 465.677 195.028 474.893 195.028C479.789 195.028 483.149 193.588 485.357 191.092ZM534.994 151.348C537.01 151.348 539.026 151.732 540.946 152.404L539.026 160.852C537.49 160.372 536.05 160.18 534.706 160.18C523.666 160.18 517.042 172.18 517.042 188.788V200.5H508.402V152.5H517.042V168.148C519.442 158.452 526.93 151.348 534.994 151.348ZM588.455 193.396L588.647 200.5C586.823 200.788 585.191 200.884 583.271 200.884C577.991 200.884 575.111 198.388 574.631 193.396C571.943 198.868 566.663 201.652 558.503 201.652C550.439 201.652 542.375 197.236 542.375 187.828C542.375 177.46 551.111 174.58 558.695 173.14L574.535 170.068C574.535 165.748 574.343 163.348 572.903 161.332C571.559 159.412 568.391 158.164 564.167 158.164C555.815 158.164 552.455 161.236 552.455 168.532L544.007 167.38C544.199 161.62 546.215 157.396 549.959 154.9C553.415 152.596 558.503 151.348 564.647 151.348C576.743 151.348 582.887 156.724 582.887 167.188V190.132C582.887 192.628 582.887 193.78 585.671 193.78C586.439 193.78 587.207 193.684 588.455 193.396ZM574.535 182.356V176.5L560.039 179.668C554.951 180.82 551.207 182.26 551.207 187.732C551.207 192.244 555.143 194.74 559.847 194.74C570.311 194.74 574.535 189.268 574.535 182.356ZM634.443 156.724C638.091 160.66 638.187 166.9 638.187 171.988V200.5H629.259V172.468C629.259 168.052 629.355 164.116 626.379 161.332C623.691 158.644 620.523 158.548 617.835 158.548C613.611 158.548 605.355 160.276 605.355 174.004V200.5H596.715V152.5H605.355V159.796C607.755 154.42 612.459 151.348 620.139 151.348C626.475 151.348 630.987 153.076 634.443 156.724ZM684.804 158.74V133.3H693.444V200.5H684.804V193.492C681.252 198.964 676.068 201.652 669.636 201.652C656.868 201.652 647.556 192.148 647.556 176.5C647.556 161.332 656.388 151.348 669.348 151.348C676.068 151.348 681.156 153.652 684.804 158.74ZM680.58 191.38C683.556 188.404 685.092 183.412 685.092 176.596C685.092 167.668 683.076 158.26 671.364 158.26C666.468 158.26 663.012 159.7 660.804 162.292C658.116 165.46 657.06 170.26 657.06 176.5C657.06 187.732 659.94 194.836 671.172 194.836C675.204 194.836 678.276 193.684 680.58 191.38ZM723.401 201.652C712.649 201.652 702.953 196.66 703.049 184.756L710.921 183.988C710.825 190.708 715.721 194.836 723.209 194.836C731.081 194.836 735.017 192.148 735.017 187.06C735.017 181.588 726.185 180.916 719.561 179.188C711.785 177.172 704.105 174.868 704.105 165.364C704.105 155.38 713.321 151.348 721.865 151.348C732.041 151.348 740.873 155.38 741.929 167.092L733.865 168.34C733.673 161.716 729.353 158.164 721.769 158.164C717.065 158.164 712.169 160.372 712.169 164.788C712.169 169.204 717.929 170.452 723.689 171.7C733.289 173.716 743.177 175.348 743.177 186.58C743.177 198.292 733.097 201.652 723.401 201.652ZM789.923 200.98C780.995 200.98 777.059 197.524 777.059 189.748V159.7H770.147V152.5H777.059V139.156H785.603V152.5H795.395V159.7H785.603V189.46C785.603 192.628 787.043 193.204 790.595 193.204C791.651 193.204 793.379 193.012 795.011 192.724L795.203 200.5C793.667 200.788 791.651 200.98 789.923 200.98ZM841.536 156.724C845.184 160.66 845.28 166.708 845.28 171.796V200.5H836.352V172.276C836.352 167.86 836.448 164.116 833.472 161.332C830.784 158.644 827.616 158.548 824.928 158.548C820.608 158.548 812.448 159.604 812.448 173.524V200.5H803.808V133.3H812.448V159.7C815.136 153.94 820.512 151.348 827.232 151.348C833.568 151.348 838.08 153.076 841.536 156.724ZM884.025 151.348C886.041 151.348 888.057 151.732 889.977 152.404L888.057 160.852C886.521 160.372 885.081 160.18 883.737 160.18C872.697 160.18 866.073 172.18 866.073 188.788V200.5H857.433V152.5H866.073V168.148C868.473 158.452 875.961 151.348 884.025 151.348ZM915.585 201.652C900.609 201.652 891.585 192.148 891.585 176.5C891.585 161.908 900.705 151.348 915.585 151.348C930.273 151.348 939.489 162.004 939.489 176.5C939.489 191.572 929.985 201.652 915.585 201.652ZM915.585 194.836C920.481 194.836 923.937 193.396 926.241 190.804C929.025 187.636 930.177 182.74 930.177 176.5C930.177 170.26 929.025 165.268 926.145 162.1C923.841 159.604 920.481 158.164 915.585 158.164C910.881 158.164 907.425 159.412 905.121 161.812C902.049 164.98 900.897 170.068 900.897 176.5C900.897 182.932 902.049 188.02 905.121 191.188C907.425 193.588 910.785 194.836 915.585 194.836ZM981.66 179.476V152.5H990.3V200.5H981.66V193.3C979.068 198.772 973.692 201.652 966.876 201.652C960.636 201.652 956.124 199.924 952.668 196.276C948.924 192.34 948.828 186.292 948.828 181.204V152.5H957.756V180.724C957.756 185.14 957.66 188.884 960.54 191.668C963.324 194.356 966.492 194.452 969.276 194.452C973.596 194.452 981.66 193.396 981.66 179.476ZM1037.3 159.22V152.5H1045.94V199.444C1045.94 212.308 1037.01 220.18 1022.9 220.18C1013.4 220.18 1002.93 216.052 1002.45 203.956L1010.71 203.38C1011.09 211.348 1016.18 213.46 1023.86 213.46C1031.64 213.46 1037.3 208.756 1037.3 200.02V191.86C1033.75 197.428 1028.76 200.116 1022.13 200.116C1008.89 200.116 1000.15 190.228 1000.15 175.252C1000.15 161.044 1008.98 151.348 1021.85 151.348C1029.05 151.348 1033.94 154.132 1037.3 159.22ZM1033.37 189.268C1036.53 185.812 1037.69 180.436 1037.69 175.252C1037.69 163.924 1032.69 158.26 1023.67 158.26C1018.77 158.26 1015.41 159.604 1013.21 162.196C1010.52 165.076 1009.56 169.588 1009.56 175.252C1009.56 186.484 1012.44 193.204 1023.48 193.204C1027.99 193.204 1031.16 191.668 1033.37 189.268ZM1096.35 156.724C1100 160.66 1100.09 166.708 1100.09 171.796V200.5H1091.16V172.276C1091.16 167.86 1091.26 164.116 1088.28 161.332C1085.6 158.644 1082.43 158.548 1079.74 158.548C1075.42 158.548 1067.26 159.604 1067.26 173.524V200.5H1058.62V133.3H1067.26V159.7C1069.95 153.94 1075.32 151.348 1082.04 151.348C1088.38 151.348 1092.89 153.076 1096.35 156.724ZM1133.14 201.844C1129.59 201.844 1127.76 198.388 1131.03 190.036C1134.29 181.972 1138.61 172.372 1142.45 161.332C1144.37 155.764 1138.42 158.26 1134.1 161.908C1130.83 164.596 1129.97 162.388 1132.47 159.892C1137.65 154.708 1143.31 152.116 1146.87 150.58C1149.94 149.14 1154.64 150.484 1151.19 158.164C1138.61 186.1 1137.17 190.228 1137.27 192.148C1137.27 193.684 1138.61 194.26 1139.47 194.26C1146.77 194.26 1165.78 167.86 1171.92 154.9C1172.98 152.884 1173.65 151.444 1175.57 150.58C1178.64 149.14 1181.04 150.388 1177.97 158.164C1167.03 186.1 1164.63 190.228 1164.72 192.148C1164.72 193.684 1166.07 194.26 1166.93 194.26C1170.1 194.26 1177.68 187.252 1180.27 184.564C1181.14 183.604 1182.19 184.084 1181.43 185.332C1179.41 189.268 1167.6 201.844 1160.59 201.844C1157.04 201.844 1155.22 198.388 1158.58 190.132C1160.4 185.62 1163.19 180.628 1165.3 175.252C1165.68 174.1 1164.91 173.332 1163.86 174.1C1160.88 176.596 1157.62 180.724 1156.66 181.972C1152.34 187.636 1140.15 201.844 1133.14 201.844ZM1188.84 201.844C1177.7 201.844 1177.99 190.708 1183.27 190.708C1187.4 190.708 1190.95 197.332 1195.85 197.332C1200.36 197.332 1203.62 194.452 1204.01 189.172C1204.68 181.78 1196.62 172.852 1197.19 166.132C1198.34 153.94 1208.42 148.948 1214.09 148.948C1225.51 148.948 1223.5 160.468 1218.79 160.468C1215.62 160.468 1215.05 151.924 1209.67 151.924C1206.12 151.924 1203.53 155.38 1203.34 157.972C1202.57 166.132 1211.11 176.404 1210.34 184.948C1209.19 198.1 1196.14 201.844 1188.84 201.844ZM1236.01 201.94C1224.3 201.94 1218.64 193.396 1223.53 178.036C1229.2 160.276 1242.54 149.62 1253.1 149.62C1266.16 149.62 1268.08 165.556 1253.87 169.108L1234.09 174.004C1232.17 174.484 1230.83 175.732 1230.44 177.748C1227.66 189.46 1231.69 196.276 1239.28 196.18C1245.52 196.084 1249.64 191.764 1252.52 187.348C1254.44 184.276 1255.88 185.62 1253.96 188.596C1248.49 197.332 1241.39 201.94 1236.01 201.94ZM1246.38 167.86C1251.76 165.844 1254.73 161.524 1254.92 157.684C1255.21 153.94 1252.81 152.692 1250.41 152.692C1244.84 152.692 1239.08 157.396 1235.34 164.596C1232.08 171.604 1238.7 170.644 1246.38 167.86ZM1269.98 201.364C1267.01 202.804 1264.51 201.556 1267.58 193.972C1278.91 165.844 1280.16 161.716 1279.97 159.796C1279.77 158.26 1278.43 157.684 1277.57 157.684C1274.4 157.684 1268.16 164.692 1265.76 167.38C1264.99 168.34 1263.93 167.86 1264.51 166.612C1266.33 162.676 1276.32 150.1 1283.33 150.1C1286.88 150.1 1288.99 153.556 1286.3 161.908C1284.77 166.324 1283.13 171.316 1281.41 176.692C1281.02 177.844 1282.17 178.9 1282.65 177.844C1289.28 165.076 1300.22 149.236 1307.42 149.236C1310.4 149.236 1313.09 151.06 1313.57 155.284C1314.14 160.756 1309.73 164.116 1307.71 164.116C1305.69 164.116 1306.65 157.684 1303.1 157.684C1292.54 157.684 1281.41 184.084 1273.53 197.332C1272.48 199.06 1271.81 200.5 1269.98 201.364ZM79.2887 334.94C72.8567 334.94 69.4967 330.908 69.4967 323.132C69.4967 307.388 83.4167 282.62 102.041 282.62C104.537 282.62 108.377 283.58 110.297 285.404C112.889 287.708 108.665 291.164 105.305 291.164C101.177 291.164 101.753 287.036 95.5127 287.036C86.4887 287.036 77.5607 308.06 77.5607 319.868C77.5607 325.628 79.4807 328.412 83.6087 328.412C91.0967 328.412 95.9927 320.444 97.7207 318.332C98.5847 317.18 100.121 317.948 99.4487 319.292C98.2967 321.596 91.0967 334.94 79.2887 334.94ZM122.102 334.94C110.39 334.94 104.726 326.396 109.622 311.036C115.286 293.276 128.63 282.62 139.19 282.62C152.246 282.62 154.166 298.556 139.958 302.108L120.182 307.004C118.262 307.484 116.918 308.732 116.534 310.748C113.75 322.46 117.782 329.276 125.366 329.18C131.606 329.084 135.734 324.764 138.614 320.348C140.534 317.276 141.974 318.62 140.054 321.596C134.582 330.332 127.478 334.94 122.102 334.94ZM132.47 300.86C137.846 298.844 140.822 294.524 141.014 290.684C141.302 286.94 138.902 285.692 136.502 285.692C130.934 285.692 125.174 290.396 121.43 297.596C118.166 304.604 124.79 303.644 132.47 300.86ZM183.816 334.364C180.648 335.804 177.672 334.556 181.032 326.78C192.936 298.844 194.568 294.716 194.568 292.796C194.568 291.26 193.608 290.684 192.456 290.684C185.16 290.684 165.48 317.084 160.104 329.756C156.36 338.588 150.984 335.996 154.536 326.588C164.904 298.844 164.616 294.716 164.616 292.796C164.616 291.26 163.368 290.684 162.504 290.684C159.336 290.684 154.248 297.692 151.56 300.38C150.696 301.34 149.64 300.86 150.408 299.612C152.616 295.676 162.024 283.1 169.032 283.1C172.584 283.1 174.312 286.556 171.816 295.292C170.664 299.324 168.552 304.316 166.248 309.692C165.768 310.844 166.536 311.612 167.592 310.844C170.664 308.348 174.12 304.22 175.08 302.972C179.592 297.308 191.976 283.1 198.984 283.1C202.536 283.1 204.264 286.556 200.712 294.908C197.16 302.972 192.84 312.572 188.616 323.612C186.504 329.18 192.552 326.684 196.968 323.036C200.328 320.348 201.096 322.556 198.504 325.052C193.128 330.236 187.368 332.828 183.816 334.364ZM214.477 334.94C210.925 334.94 207.565 331.292 210.157 323.708C212.557 316.892 221.197 292.988 221.773 290.972C222.445 288.572 220.909 287.708 215.341 288.092C212.845 288.284 212.749 285.884 215.245 285.404C224.173 283.58 226.477 281.468 230.605 271.484C231.757 268.796 233.581 268.796 232.909 271.196L230.413 280.124C229.741 282.428 231.181 284.06 232.909 284.06H243.949C246.253 284.06 242.221 288.188 239.821 288.188H232.141C230.221 288.188 229.453 289.34 228.781 291.068C228.109 292.796 220.429 314.492 217.837 322.172C217.453 323.228 215.629 327.26 219.853 327.26C222.925 327.26 229.069 320.252 230.797 317.564C231.565 316.508 233.581 316.316 232.717 318.332C231.085 322.076 221.389 334.94 214.477 334.94ZM245.787 334.364C242.811 335.804 240.315 334.556 243.387 326.972C254.715 298.844 255.963 294.716 255.771 292.796C255.579 291.26 254.235 290.684 253.371 290.684C250.203 290.684 243.963 297.692 241.563 300.38C240.795 301.34 239.739 300.86 240.315 299.612C242.139 295.676 252.123 283.1 259.131 283.1C262.683 283.1 264.795 286.556 262.107 294.908C260.571 299.324 258.939 304.316 257.211 309.692C256.827 310.844 257.979 311.9 258.459 310.844C265.083 298.076 276.027 282.236 283.227 282.236C286.203 282.236 288.891 284.06 289.371 288.284C289.947 293.756 285.531 297.116 283.515 297.116C281.499 297.116 282.459 290.684 278.907 290.684C268.347 290.684 257.211 317.084 249.339 330.332C248.283 332.06 247.611 333.5 245.787 334.364ZM290.682 334.844C287.13 334.844 285.498 331.388 289.338 323.036C293.178 314.972 297.786 305.372 302.394 294.332C304.698 288.764 298.554 291.26 294.042 294.908C290.586 297.596 289.914 295.388 292.602 292.892C298.17 287.708 304.026 285.116 307.578 283.58C310.842 282.14 313.722 283.388 310.074 291.164C297.21 319.1 296.346 323.228 296.25 325.148C296.25 326.684 297.402 327.26 298.266 327.26C301.434 327.26 307.866 320.252 310.65 317.564C311.514 316.604 312.57 317.084 311.802 318.332C309.402 322.268 297.69 334.844 290.682 334.844ZM313.626 276.764C310.65 276.764 308.346 274.46 308.346 271.484C308.346 268.604 310.65 266.3 313.626 266.3C316.506 266.3 318.81 268.604 318.81 271.484C318.81 274.46 316.506 276.764 313.626 276.764ZM325.746 334.94C319.314 334.94 315.954 330.908 315.954 323.132C315.954 307.388 329.874 282.62 348.498 282.62C350.994 282.62 354.834 283.58 356.754 285.404C359.346 287.708 355.122 291.164 351.762 291.164C347.634 291.164 348.21 287.036 341.97 287.036C332.946 287.036 324.018 308.06 324.018 319.868C324.018 325.628 325.938 328.412 330.066 328.412C337.554 328.412 342.45 320.444 344.178 318.332C345.042 317.18 346.578 317.948 345.906 319.292C344.754 321.596 337.554 334.94 325.746 334.94ZM416.129 291.74V266.3H424.769V333.5H416.129V326.492C412.577 331.964 407.393 334.652 400.961 334.652C388.193 334.652 378.881 325.148 378.881 309.5C378.881 294.332 387.713 284.348 400.673 284.348C407.393 284.348 412.481 286.652 416.129 291.74ZM411.905 324.38C414.881 321.404 416.417 316.412 416.417 309.596C416.417 300.668 414.401 291.26 402.689 291.26C397.793 291.26 394.337 292.7 392.129 295.292C389.441 298.46 388.385 303.26 388.385 309.5C388.385 320.732 391.265 327.836 402.497 327.836C406.529 327.836 409.601 326.684 411.905 324.38ZM446.087 276.476H437.447V266.3H446.087V276.476ZM446.087 333.5H437.447V285.5H446.087V333.5ZM493.096 292.22V285.5H501.736V332.444C501.736 345.308 492.808 353.18 478.696 353.18C469.192 353.18 458.728 349.052 458.248 336.956L466.504 336.38C466.888 344.348 471.976 346.46 479.656 346.46C487.432 346.46 493.096 341.756 493.096 333.02V324.86C489.544 330.428 484.552 333.116 477.928 333.116C464.68 333.116 455.944 323.228 455.944 308.252C455.944 294.044 464.776 284.348 477.64 284.348C484.84 284.348 489.736 287.132 493.096 292.22ZM489.16 322.268C492.328 318.812 493.48 313.436 493.48 308.252C493.48 296.924 488.488 291.26 479.464 291.26C474.568 291.26 471.208 292.604 469 295.196C466.312 298.076 465.352 302.588 465.352 308.252C465.352 319.484 468.232 326.204 479.272 326.204C483.784 326.204 486.952 324.668 489.16 322.268ZM523.055 276.476H514.415V266.3H523.055V276.476ZM523.055 333.5H514.415V285.5H523.055V333.5ZM551.249 333.98C542.321 333.98 538.385 330.524 538.385 322.748V292.7H531.473V285.5H538.385V272.156H546.929V285.5H556.721V292.7H546.929V322.46C546.929 325.628 548.369 326.204 551.921 326.204C552.977 326.204 554.705 326.012 556.337 325.724L556.529 333.5C554.993 333.788 552.977 333.98 551.249 333.98ZM608.718 326.396L608.91 333.5C607.086 333.788 605.454 333.884 603.534 333.884C598.254 333.884 595.374 331.388 594.894 326.396C592.206 331.868 586.926 334.652 578.766 334.652C570.702 334.652 562.638 330.236 562.638 320.828C562.638 310.46 571.374 307.58 578.958 306.14L594.798 303.068C594.798 298.748 594.606 296.348 593.166 294.332C591.822 292.412 588.654 291.164 584.43 291.164C576.078 291.164 572.718 294.236 572.718 301.532L564.27 300.38C564.462 294.62 566.478 290.396 570.222 287.9C573.678 285.596 578.766 284.348 584.91 284.348C597.006 284.348 603.15 289.724 603.15 300.188V323.132C603.15 325.628 603.15 326.78 605.934 326.78C606.702 326.78 607.47 326.684 608.718 326.396ZM594.798 315.356V309.5L580.302 312.668C575.214 313.82 571.47 315.26 571.47 320.732C571.47 325.244 575.406 327.74 580.11 327.74C590.574 327.74 594.798 322.268 594.798 315.356ZM625.618 333.5H616.978V266.3H625.618V333.5ZM677.008 334.652C666.256 334.652 656.56 329.66 656.656 317.756L664.528 316.988C664.432 323.708 669.328 327.836 676.816 327.836C684.688 327.836 688.624 325.148 688.624 320.06C688.624 314.588 679.792 313.916 673.168 312.188C665.392 310.172 657.712 307.868 657.712 298.364C657.712 288.38 666.928 284.348 675.472 284.348C685.648 284.348 694.48 288.38 695.536 300.092L687.472 301.34C687.28 294.716 682.96 291.164 675.376 291.164C670.672 291.164 665.776 293.372 665.776 297.788C665.776 302.204 671.536 303.452 677.296 304.7C686.896 306.716 696.784 308.348 696.784 319.58C696.784 331.292 686.704 334.652 677.008 334.652ZM727.629 334.652C712.653 334.652 703.629 325.148 703.629 309.5C703.629 294.908 712.749 284.348 727.629 284.348C742.317 284.348 751.533 295.004 751.533 309.5C751.533 324.572 742.029 334.652 727.629 334.652ZM727.629 327.836C732.525 327.836 735.981 326.396 738.285 323.804C741.069 320.636 742.221 315.74 742.221 309.5C742.221 303.26 741.069 298.268 738.189 295.1C735.885 292.604 732.525 291.164 727.629 291.164C722.925 291.164 719.469 292.412 717.165 294.812C714.093 297.98 712.941 303.068 712.941 309.5C712.941 315.932 714.093 321.02 717.165 324.188C719.469 326.588 722.829 327.836 727.629 327.836ZM769.993 333.5H761.353V266.3H769.993V333.5ZM814.986 312.476V285.5H823.626V333.5H814.986V326.3C812.394 331.772 807.018 334.652 800.202 334.652C793.962 334.652 789.45 332.924 785.994 329.276C782.25 325.34 782.154 319.292 782.154 314.204V285.5H791.082V313.724C791.082 318.14 790.986 321.884 793.866 324.668C796.65 327.356 799.818 327.452 802.602 327.452C806.922 327.452 814.986 326.396 814.986 312.476ZM851.811 333.98C842.883 333.98 838.947 330.524 838.947 322.748V292.7H832.035V285.5H838.947V272.156H847.491V285.5H857.283V292.7H847.491V322.46C847.491 325.628 848.931 326.204 852.483 326.204C853.539 326.204 855.267 326.012 856.899 325.724L857.091 333.5C855.555 333.788 853.539 333.98 851.811 333.98ZM874.337 276.476H865.697V266.3H874.337V276.476ZM874.337 333.5H865.697V285.5H874.337V333.5ZM908.098 334.652C893.122 334.652 884.098 325.148 884.098 309.5C884.098 294.908 893.218 284.348 908.098 284.348C922.786 284.348 932.002 295.004 932.002 309.5C932.002 324.572 922.498 334.652 908.098 334.652ZM908.098 327.836C912.994 327.836 916.45 326.396 918.754 323.804C921.538 320.636 922.69 315.74 922.69 309.5C922.69 303.26 921.538 298.268 918.658 295.1C916.354 292.604 912.994 291.164 908.098 291.164C903.394 291.164 899.938 292.412 897.634 294.812C894.562 297.98 893.41 303.068 893.41 309.5C893.41 315.932 894.562 321.02 897.634 324.188C899.938 326.588 903.298 327.836 908.098 327.836ZM979.55 289.724C983.198 293.66 983.294 299.9 983.294 304.988V333.5H974.366V305.468C974.366 301.052 974.462 297.116 971.486 294.332C968.798 291.644 965.63 291.548 962.942 291.548C958.718 291.548 950.462 293.276 950.462 307.004V333.5H941.822V285.5H950.462V292.796C952.862 287.42 957.566 284.348 965.246 284.348C971.582 284.348 976.094 286.076 979.55 289.724ZM1012.73 334.652C1001.97 334.652 992.279 329.66 992.375 317.756L1000.25 316.988C1000.15 323.708 1005.05 327.836 1012.53 327.836C1020.41 327.836 1024.34 325.148 1024.34 320.06C1024.34 314.588 1015.51 313.916 1008.89 312.188C1001.11 310.172 993.431 307.868 993.431 298.364C993.431 288.38 1002.65 284.348 1011.19 284.348C1021.37 284.348 1030.2 288.38 1031.25 300.092L1023.19 301.34C1023 294.716 1018.68 291.164 1011.09 291.164C1006.39 291.164 1001.49 293.372 1001.49 297.788C1001.49 302.204 1007.25 303.452 1013.01 304.7C1022.61 306.716 1032.5 308.348 1032.5 319.58C1032.5 331.292 1022.42 334.652 1012.73 334.652ZM1041.75 346.076V341.276C1043.86 340.508 1046.07 338.78 1046.16 333.5H1041.65V323.132H1051.35V333.692C1051.35 340.508 1047.8 344.924 1041.75 346.076ZM1125.75 326.396L1125.94 333.5C1124.12 333.788 1122.49 333.884 1120.57 333.884C1115.29 333.884 1112.41 331.388 1111.93 326.396C1109.24 331.868 1103.96 334.652 1095.8 334.652C1087.73 334.652 1079.67 330.236 1079.67 320.828C1079.67 310.46 1088.41 307.58 1095.99 306.14L1111.83 303.068C1111.83 298.748 1111.64 296.348 1110.2 294.332C1108.85 292.412 1105.69 291.164 1101.46 291.164C1093.11 291.164 1089.75 294.236 1089.75 301.532L1081.3 300.38C1081.49 294.62 1083.51 290.396 1087.25 287.9C1090.71 285.596 1095.8 284.348 1101.94 284.348C1114.04 284.348 1120.18 289.724 1120.18 300.188V323.132C1120.18 325.628 1120.18 326.78 1122.97 326.78C1123.73 326.78 1124.5 326.684 1125.75 326.396ZM1111.83 315.356V309.5L1097.33 312.668C1092.25 313.82 1088.5 315.26 1088.5 320.732C1088.5 325.244 1092.44 327.74 1097.14 327.74C1107.61 327.74 1111.83 322.268 1111.83 315.356ZM1171.74 289.724C1175.39 293.66 1175.48 299.9 1175.48 304.988V333.5H1166.55V305.468C1166.55 301.052 1166.65 297.116 1163.67 294.332C1160.99 291.644 1157.82 291.548 1155.13 291.548C1150.91 291.548 1142.65 293.276 1142.65 307.004V333.5H1134.01V285.5H1142.65V292.796C1145.05 287.42 1149.75 284.348 1157.43 284.348C1163.77 284.348 1168.28 286.076 1171.74 289.724ZM1222.1 291.74V266.3H1230.74V333.5H1222.1V326.492C1218.55 331.964 1213.36 334.652 1206.93 334.652C1194.16 334.652 1184.85 325.148 1184.85 309.5C1184.85 294.332 1193.68 284.348 1206.64 284.348C1213.36 284.348 1218.45 286.652 1222.1 291.74ZM1217.87 324.38C1220.85 321.404 1222.39 316.412 1222.39 309.596C1222.39 300.668 1220.37 291.26 1208.66 291.26C1203.76 291.26 1200.31 292.7 1198.1 295.292C1195.41 298.46 1194.35 303.26 1194.35 309.5C1194.35 320.732 1197.23 327.836 1208.47 327.836C1212.5 327.836 1215.57 326.684 1217.87 324.38ZM213.753 450.036C206.553 450.036 198.777 442.644 202.905 424.5C206.457 409.332 218.073 397.62 227.865 397.62C237.369 397.62 241.593 410.772 238.809 423.156C235.161 438.324 223.545 450.036 213.753 450.036ZM212.889 447.252C216.441 447.348 223.257 441.012 226.809 433.62C232.953 421.236 237.273 400.404 228.537 400.404C224.793 400.404 217.881 408.18 213.081 418.164C207.417 429.876 205.593 447.06 212.889 447.252ZM229.362 467.7C226.866 467.7 226.962 465.876 229.938 465.588C235.794 465.108 238.482 462.804 240.498 458.004C246.93 440.82 252.498 424.884 257.778 409.62C259.122 405.684 256.53 407.22 252.21 409.812C248.082 412.404 247.89 409.908 250.674 407.796C253.074 405.972 255.666 404.532 258.258 403.188C259.506 402.516 260.37 401.748 262.866 395.028C264.21 391.476 273.234 385.812 270.642 391.476C270.45 391.956 269.586 394.068 268.914 395.988C268.05 398.1 269.394 399.06 271.986 398.484C274.674 398.004 276.978 397.716 278.898 397.716C287.538 397.716 293.97 405.684 288.594 421.62C282.642 439.38 268.722 450.036 261.33 450.036C256.722 450.036 255.666 447.636 254.226 445.908C252.786 444.084 252.114 444.948 251.442 446.868L247.794 457.812C246.45 462.132 249.522 465.108 256.242 465.588C258.93 465.78 257.778 467.892 255.57 467.7C251.826 467.412 244.626 467.028 240.594 467.028C235.986 467.028 233.202 467.7 229.362 467.7ZM261.906 446.964C266.418 446.964 275.826 438.804 280.434 425.268C285.042 411.54 281.202 402.324 273.81 402.612C272.37 402.708 270.354 402.804 268.146 403.188C266.61 403.476 265.65 404.34 265.074 405.78C263.154 411.54 261.33 417.108 259.314 423.636L256.434 432.468C253.458 441.396 256.05 446.964 261.906 446.964ZM308.464 449.94C296.752 449.94 291.088 441.396 295.984 426.036C301.648 408.276 314.992 397.62 325.552 397.62C338.608 397.62 340.528 413.556 326.32 417.108L306.544 422.004C304.624 422.484 303.28 423.732 302.896 425.748C300.112 437.46 304.144 444.276 311.728 444.18C317.968 444.084 322.096 439.764 324.976 435.348C326.896 432.276 328.336 433.62 326.416 436.596C320.944 445.332 313.84 449.94 308.464 449.94ZM318.832 415.86C324.208 413.844 327.184 409.524 327.376 405.684C327.664 401.94 325.264 400.692 322.864 400.692C317.296 400.692 311.536 405.396 307.792 412.596C304.528 419.604 311.152 418.644 318.832 415.86ZM342.434 449.364C339.458 450.804 336.962 449.556 340.034 441.972C351.362 413.844 352.61 409.716 352.418 407.796C352.226 406.26 350.882 405.684 350.018 405.684C346.85 405.684 340.61 412.692 338.21 415.38C337.442 416.34 336.386 415.86 336.962 414.612C338.786 410.676 348.77 398.1 355.778 398.1C359.33 398.1 361.442 401.556 358.754 409.908C357.218 414.324 355.586 419.316 353.858 424.692C353.474 425.844 354.626 426.9 355.106 425.844C361.73 413.076 389.09 386.1 404.354 383.988C413.282 382.74 409.826 394.644 402.338 394.068C385.538 392.916 358.85 417.108 345.986 445.332C345.218 447.06 344.258 448.5 342.434 449.364ZM380.546 443.22C392.546 443.22 412.322 415.284 412.322 408.372C412.322 406.548 410.498 404.724 407.81 404.724C392.45 404.724 377.09 429.972 377.09 439.092C377.09 441.492 378.53 443.22 380.546 443.22ZM376.034 449.844C372.194 449.844 368.93 447.252 368.93 442.644C368.93 428.532 393.506 404.436 408.386 401.844C412.034 401.172 413.186 400.116 415.97 398.196C419.426 395.796 421.922 397.332 421.922 399.444C421.922 400.884 420.29 404.724 407.618 438.132C406.658 440.724 407.138 443.22 409.25 443.22C412.034 443.22 416.066 438.708 419.138 434.772C419.81 433.908 421.25 434.388 420.482 435.732C417.698 440.532 409.25 449.844 403.49 449.844C399.842 449.844 397.346 446.1 401.378 437.46C401.954 436.308 403.202 433.62 403.778 432.372C404.738 430.26 403.394 429.108 401.666 431.124C399.554 433.428 395.33 437.748 391.874 440.916C384.866 447.348 379.778 449.844 376.034 449.844ZM433.932 449.94C430.38 449.94 427.02 446.292 429.612 438.708C432.012 431.892 440.652 407.988 441.228 405.972C441.9 403.572 440.364 402.708 434.796 403.092C432.3 403.284 432.204 400.884 434.7 400.404C443.628 398.58 445.932 396.468 450.06 386.484C451.212 383.796 453.036 383.796 452.364 386.196L449.868 395.124C449.196 397.428 450.636 399.06 452.364 399.06H463.404C465.708 399.06 461.676 403.188 459.276 403.188H451.596C449.676 403.188 448.908 404.34 448.236 406.068C447.564 407.796 439.884 429.492 437.292 437.172C436.908 438.228 435.084 442.26 439.308 442.26C442.38 442.26 448.524 435.252 450.252 432.564C451.02 431.508 453.036 431.316 452.172 433.332C450.54 437.076 440.844 449.94 433.932 449.94ZM462.843 449.844C459.291 449.844 457.659 446.388 461.499 438.036C465.339 429.972 469.947 420.372 474.555 409.332C476.859 403.764 470.715 406.26 466.203 409.908C462.747 412.596 462.075 410.388 464.763 407.892C470.331 402.708 476.187 400.116 479.739 398.58C483.003 397.14 485.883 398.388 482.235 406.164C469.371 434.1 468.507 438.228 468.411 440.148C468.411 441.684 469.563 442.26 470.427 442.26C473.595 442.26 480.027 435.252 482.811 432.564C483.675 431.604 484.731 432.084 483.963 433.332C481.563 437.268 469.851 449.844 462.843 449.844ZM485.787 391.764C482.811 391.764 480.507 389.46 480.507 386.484C480.507 383.604 482.811 381.3 485.787 381.3C488.667 381.3 490.971 383.604 490.971 386.484C490.971 389.46 488.667 391.764 485.787 391.764ZM501.555 450.036C494.355 450.036 486.579 442.644 490.707 424.5C494.259 409.332 505.875 397.62 515.667 397.62C525.171 397.62 529.395 410.772 526.611 423.156C522.963 438.324 511.347 450.036 501.555 450.036ZM500.691 447.252C504.243 447.348 511.059 441.012 514.611 433.62C520.755 421.236 525.075 400.404 516.339 400.404C512.595 400.404 505.683 408.18 500.883 418.164C495.219 429.876 493.395 447.06 500.691 447.252ZM566.014 449.364C562.846 450.804 559.87 449.556 563.23 441.78C575.134 413.844 576.766 409.716 576.766 407.796C576.766 406.26 575.806 405.684 574.654 405.684C567.358 405.684 547.678 432.084 542.302 444.756C538.558 453.588 533.182 450.996 536.734 441.588C547.102 413.844 546.814 409.716 546.814 407.796C546.814 406.26 545.566 405.684 544.702 405.684C541.534 405.684 536.446 412.692 533.758 415.38C532.894 416.34 531.838 415.86 532.606 414.612C534.814 410.676 544.222 398.1 551.23 398.1C554.782 398.1 556.51 401.556 554.014 410.292C552.862 414.324 550.75 419.316 548.446 424.692C547.966 425.844 548.734 426.612 549.79 425.844C552.862 423.348 556.318 419.22 557.278 417.972C561.79 412.308 574.174 398.1 581.182 398.1C584.734 398.1 586.462 401.556 582.91 409.908C579.358 417.972 575.038 427.572 570.814 438.612C568.702 444.18 574.75 441.684 579.166 438.036C582.526 435.348 583.294 437.556 580.702 440.052C575.326 445.236 569.566 447.828 566.014 449.364ZM593.402 449.844C589.562 449.844 586.298 447.252 586.298 442.644C586.298 428.532 610.874 404.436 625.754 401.844C629.402 401.172 630.554 400.116 633.338 398.196C636.794 395.796 639.29 397.332 639.29 399.444C639.29 400.884 637.658 404.724 624.986 438.132C624.026 440.724 624.506 443.22 626.618 443.22C629.402 443.22 633.434 438.708 636.506 434.772C637.178 433.908 638.618 434.388 637.85 435.732C635.066 440.532 626.618 449.844 620.858 449.844C617.21 449.844 614.714 446.1 618.746 437.46C619.322 436.308 620.57 433.62 621.146 432.372C622.106 430.26 620.762 429.108 619.034 431.124C616.922 433.428 612.698 437.748 609.242 440.916C602.234 447.348 597.146 449.844 593.402 449.844ZM597.914 443.22C609.914 443.22 629.69 415.284 629.69 408.372C629.69 406.548 627.866 404.724 625.178 404.724C609.818 404.724 594.458 429.972 594.458 439.092C594.458 441.492 595.898 443.22 597.914 443.22ZM646.674 449.844C643.122 449.844 641.394 446.388 644.946 438.036C648.498 429.972 657.522 402.804 661.746 391.764C663.858 386.196 657.81 388.692 653.394 392.34C650.034 395.028 649.266 392.82 651.858 390.324C657.234 385.14 662.994 382.548 666.546 381.012C669.714 379.572 672.498 380.82 669.33 388.596C657.906 416.628 651.09 438.228 651.09 440.148C651.09 441.684 652.338 442.26 653.202 442.26C656.37 442.26 663.378 435.252 666.066 432.564C666.93 431.604 667.986 432.084 667.218 433.332C665.01 437.268 653.682 449.844 646.674 449.844ZM708.15 449.94C696.438 449.94 690.774 441.396 695.67 426.036C701.334 408.276 714.678 397.62 725.238 397.62C738.294 397.62 740.214 413.556 726.006 417.108L706.23 422.004C704.31 422.484 702.966 423.732 702.582 425.748C699.798 437.46 703.83 444.276 711.414 444.18C717.654 444.084 721.782 439.764 724.662 435.348C726.582 432.276 728.022 433.62 726.102 436.596C720.63 445.332 713.526 449.94 708.15 449.94ZM718.518 415.86C723.894 413.844 726.87 409.524 727.062 405.684C727.35 401.94 724.95 400.692 722.55 400.692C716.982 400.692 711.222 405.396 707.478 412.596C704.214 419.604 710.838 418.644 718.518 415.86ZM775.642 450.42C770.938 450.42 766.714 443.892 760.858 427.38C750.874 440.724 742.426 450.132 736.09 450.132C731.674 450.132 730.138 447.156 730.138 444.468C730.138 440.724 734.362 443.7 738.106 443.7C742.042 443.7 746.746 440.82 760.762 425.748C757.402 416.82 752.602 405.492 749.53 405.492C747.61 405.492 744.922 408.372 741.754 413.844C740.122 416.628 738.202 416.628 740.698 410.58C743.002 405.108 747.13 397.62 751.066 397.62C757.018 397.62 758.842 402.132 765.754 419.988C776.314 405.78 785.914 398.964 791.866 398.964C794.362 398.964 797.05 400.02 797.05 402.9C797.05 407.7 791.866 410.58 790.522 408.756C789.754 407.7 789.658 404.244 787.258 404.244C783.418 404.244 774.97 414.228 766.33 422.388C771.61 435.06 774.682 442.74 778.234 442.74C779.098 442.74 781.69 442.74 784.282 433.812C785.626 429.012 787.642 431.892 785.722 436.98C783.802 442.068 779.386 450.42 775.642 450.42ZM804.128 449.94C797.696 449.94 794.336 445.908 794.336 438.132C794.336 422.388 808.256 397.62 826.88 397.62C829.376 397.62 833.216 398.58 835.136 400.404C837.728 402.708 833.504 406.164 830.144 406.164C826.016 406.164 826.592 402.036 820.352 402.036C811.328 402.036 802.4 423.06 802.4 434.868C802.4 440.628 804.32 443.412 808.448 443.412C815.936 443.412 820.832 435.444 822.56 433.332C823.424 432.18 824.96 432.948 824.288 434.292C823.136 436.596 815.936 449.94 804.128 449.94ZM846.942 449.94C835.23 449.94 829.566 441.396 834.462 426.036C840.126 408.276 853.47 397.62 864.03 397.62C877.086 397.62 879.006 413.556 864.798 417.108L845.022 422.004C843.102 422.484 841.758 423.732 841.374 425.748C838.59 437.46 842.622 444.276 850.206 444.18C856.446 444.084 860.574 439.764 863.454 435.348C865.374 432.276 866.814 433.62 864.894 436.596C859.422 445.332 852.318 449.94 846.942 449.94ZM857.31 415.86C862.686 413.844 865.662 409.524 865.854 405.684C866.142 401.94 863.742 400.692 861.342 400.692C855.774 400.692 850.014 405.396 846.27 412.596C843.006 419.604 849.63 418.644 857.31 415.86ZM877.944 449.844C874.392 449.844 872.664 446.388 876.216 438.036C879.768 429.972 888.792 402.804 893.016 391.764C895.128 386.196 889.08 388.692 884.664 392.34C881.304 395.028 880.536 392.82 883.128 390.324C888.504 385.14 894.264 382.548 897.816 381.012C900.984 379.572 903.768 380.82 900.6 388.596C889.176 416.628 882.36 438.228 882.36 440.148C882.36 441.684 883.608 442.26 884.472 442.26C887.64 442.26 894.648 435.252 897.336 432.564C898.2 431.604 899.256 432.084 898.488 433.332C896.28 437.268 884.952 449.844 877.944 449.844ZM905.365 449.844C901.813 449.844 900.085 446.388 903.637 438.036C907.189 429.972 916.213 402.804 920.437 391.764C922.549 386.196 916.501 388.692 912.085 392.34C908.725 395.028 907.957 392.82 910.549 390.324C915.925 385.14 921.685 382.548 925.237 381.012C928.405 379.572 931.189 380.82 928.021 388.596C916.597 416.628 909.781 438.228 909.781 440.148C909.781 441.684 911.029 442.26 911.893 442.26C915.061 442.26 922.069 435.252 924.757 432.564C925.621 431.604 926.677 432.084 925.909 433.332C923.701 437.268 912.373 449.844 905.365 449.844ZM943.92 449.94C932.208 449.94 926.544 441.396 931.44 426.036C937.104 408.276 950.448 397.62 961.008 397.62C974.064 397.62 975.984 413.556 961.776 417.108L942 422.004C940.08 422.484 938.736 423.732 938.352 425.748C935.568 437.46 939.6 444.276 947.184 444.18C953.424 444.084 957.552 439.764 960.432 435.348C962.352 432.276 963.792 433.62 961.872 436.596C956.4 445.332 949.296 449.94 943.92 449.94ZM954.288 415.86C959.664 413.844 962.64 409.524 962.832 405.684C963.12 401.94 960.72 400.692 958.32 400.692C952.752 400.692 946.992 405.396 943.248 412.596C939.984 419.604 946.608 418.644 954.288 415.86ZM1005.63 449.364C1002.47 450.804 999.49 449.556 1002.85 441.78C1014.75 413.844 1016.39 409.716 1016.39 407.796C1016.39 406.26 1015.43 405.684 1014.27 405.684C1006.98 405.684 987.298 432.084 981.922 444.756C978.178 453.588 972.802 450.996 976.354 441.588C986.722 413.844 986.434 409.716 986.434 407.796C986.434 406.26 985.186 405.684 984.322 405.684C981.154 405.684 976.066 412.692 973.378 415.38C972.514 416.34 971.458 415.86 972.226 414.612C974.434 410.676 983.842 398.1 990.85 398.1C994.402 398.1 996.13 401.556 993.634 410.292C992.482 414.324 990.37 419.316 988.066 424.692C987.586 425.844 988.354 426.612 989.41 425.844C992.482 423.348 995.938 419.22 996.898 417.972C1001.41 412.308 1013.79 398.1 1020.8 398.1C1024.35 398.1 1026.08 401.556 1022.53 409.908C1018.98 417.972 1014.66 427.572 1010.43 438.612C1008.32 444.18 1014.37 441.684 1018.79 438.036C1022.15 435.348 1022.91 437.556 1020.32 440.052C1014.95 445.236 1009.19 447.828 1005.63 449.364ZM1038.4 449.94C1031.97 449.94 1028.61 445.908 1028.61 438.132C1028.61 422.388 1042.53 397.62 1061.15 397.62C1063.65 397.62 1067.49 398.58 1069.41 400.404C1072 402.708 1067.77 406.164 1064.41 406.164C1060.29 406.164 1060.86 402.036 1054.62 402.036C1045.6 402.036 1036.67 423.06 1036.67 434.868C1036.67 440.628 1038.59 443.412 1042.72 443.412C1050.21 443.412 1055.1 435.444 1056.83 433.332C1057.69 432.18 1059.23 432.948 1058.56 434.292C1057.41 436.596 1050.21 449.94 1038.4 449.94ZM1081.21 449.94C1069.5 449.94 1063.84 441.396 1068.73 426.036C1074.4 408.276 1087.74 397.62 1098.3 397.62C1111.36 397.62 1113.28 413.556 1099.07 417.108L1079.29 422.004C1077.37 422.484 1076.03 423.732 1075.64 425.748C1072.86 437.46 1076.89 444.276 1084.48 444.18C1090.72 444.084 1094.84 439.764 1097.72 435.348C1099.64 432.276 1101.08 433.62 1099.16 436.596C1093.69 445.332 1086.59 449.94 1081.21 449.94ZM1091.58 415.86C1096.96 413.844 1099.93 409.524 1100.12 405.684C1100.41 401.94 1098.01 400.692 1095.61 400.692C1090.04 400.692 1084.28 405.396 1080.54 412.596C1077.28 419.604 1083.9 418.644 1091.58 415.86Z" fill="#D7D2CB"/>
</svg>
