<svg width="180" height="180" viewBox="0 0 180 180" fill="none" xmlns="http://www.w3.org/2000/svg">
<path fill-rule="evenodd" clip-rule="evenodd" d="M118.26 41.1506C119.641 37.7036 120.4 33.9405 120.4 30.0001C120.4 13.4315 106.969 0 90.4002 0C73.8316 0 60.4001 13.4315 60.4001 30.0001C60.4001 35.8779 62.0905 41.361 65.0117 45.9895L64.9522 46.024C59.9263 36.4952 49.9215 29.9998 38.3995 29.9998C21.8309 29.9998 8.39941 43.4313 8.39941 59.9999C8.39941 76.5685 21.8309 90 38.3995 90C38.8015 90 39.2017 89.9921 39.5998 89.9764L39.5998 90.0004L39.5998 90.0238C39.2017 90.0082 38.8015 90.0003 38.3995 90.0003C21.8309 90.0003 8.39941 103.432 8.39941 120C8.39941 136.569 21.8309 150 38.3995 150C49.9213 150 59.9261 143.505 64.952 133.977L65.0115 134.011C62.0904 138.64 60.4001 144.122 60.4001 150C60.4001 166.569 73.8316 180 90.4002 180C106.969 180 120.4 166.569 120.4 150C120.4 146.06 119.641 142.297 118.26 138.85C123.759 145.651 132.172 150 141.6 150C158.169 150 171.6 136.569 171.6 120C171.6 103.432 158.169 90.0003 141.6 90.0003C141.467 90.0003 141.333 90.0011 141.2 90.0029V90.0004C141.2 89.9994 141.2 89.9984 141.2 89.9974C141.333 89.9991 141.467 90 141.6 90C158.169 90 171.6 76.5685 171.6 59.9999C171.6 43.4313 158.169 29.9998 141.6 29.9998C132.172 29.9998 123.759 34.349 118.26 41.1506Z" fill="#EF411B"/>
</svg>
